ply
format ascii 1.0
comment modified by normalsply
element vertex 422
property float32 x
property float32 y
property float32 z
property float32 nx
property float32 ny
property float32 nz
element face 840
property list uint8 int32 vertex_indices
end_header
0 0 -127 -0.000702005 -0.000736142 0.999999 
5 25 -125 -0.0436352 -0.20949 0.976837 
10 24 -125 -0.0887968 -0.193228 0.977127 
15 21 -125 -0.134099 -0.166389 0.976899 
19 17 -125 -0.166515 -0.134125 0.976874 
22 13 -125 -0.184609 -0.1146 0.976108 
25 8 -125 -0.203656 -0.0653131 0.976861 
26 2 -125 -0.2136 -0.0125729 0.97684 
26 -3 -125 -0.212832 0.0246688 0.976777 
25 -9 -125 -0.197643 0.0800289 0.977002 
22 -14 -125 -0.177589 0.119071 0.976875 
19 -18 -125 -0.155338 0.145863 0.977033 
15 -22 -125 -0.127659 0.17065 0.977027 
10 -25 -125 -0.0698215 0.197903 0.977732 
5 -26 -125 -0.036041 0.210323 0.976967 
0 -27 -125 0.0027469 0.21194 0.977279 
-6 -26 -125 0.0433968 0.208185 0.977126 
-11 -25 -125 0.0882742 0.191914 0.977434 
-16 -22 -125 0.133141 0.165168 0.977237 
-20 -18 -125 0.165312 0.133079 0.977221 
-23 -14 -125 0.183312 0.113724 0.976455 
-26 -9 -125 0.202369 0.0648086 0.977162 
-27 -3 -125 0.212424 0.0124678 0.977098 
-27 2 -125 0.211835 -0.0245958 0.976996 
-26 8 -125 0.19703 -0.079857 0.97714 
-23 13 -125 0.177333 -0.118904 0.976942 
-20 17 -125 0.155247 -0.145795 0.977058 
-16 21 -125 0.127757 -0.170814 0.976986 
-11 24 -125 0.0700067 -0.198506 0.977596 
-6 25 -125 0.0362169 -0.211199 0.976772 
-1 26 -125 -0.00276748 -0.213027 0.977042 
10 50 -117 -0.0845292 -0.402511 0.911504 
21 47 -117 -0.169918 -0.375535 0.911099 
30 41 -117 -0.254724 -0.329239 0.90924 
38 34 -117 -0.313107 -0.27049 0.910384 
44 25 -117 -0.360909 -0.20409 0.909995 
49 15 -117 -0.39394 -0.138922 0.908577 
51 5 -117 -0.412262 -0.035603 0.910369 
51 -6 -117 -0.413279 0.0489504 0.909288 
49 -16 -117 -0.394854 0.133191 0.909038 
44 -26 -117 -0.353657 0.217982 0.909621 
38 -35 -117 -0.308276 0.277751 0.909846 
30 -42 -117 -0.251174 0.331671 0.909344 
21 -48 -117 -0.167776 0.375985 0.91131 
10 -51 -117 -0.0654007 0.405246 0.911865 
0 -52 -117 -0.00604227 0.413085 0.910672 
-11 -51 -117 0.0845292 0.402511 0.911504 
-22 -48 -117 0.169918 0.375535 0.911099 
-31 -42 -117 0.254724 0.329239 0.90924 
-39 -35 -117 0.313107 0.27049 0.910384 
-45 -26 -117 0.360909 0.20409 0.909995 
-50 -16 -117 0.39394 0.138922 0.908577 
-52 -6 -117 0.412262 0.035603 0.910369 
-52 5 -117 0.413279 -0.0489504 0.909288 
-50 15 -117 0.394854 -0.133191 0.909038 
-45 25 -117 0.353657 -0.217982 0.909621 
-39 34 -117 0.308276 -0.277751 0.909846 
-31 41 -117 0.251174 -0.331671 0.909344 
-22 47 -117 0.167776 -0.375985 0.91131 
-11 50 -117 0.0654007 -0.405246 0.911865 
-1 51 -117 0.00604227 -0.413085 0.910672 
15 73 -103 -0.118139 -0.58682 0.801053 
30 68 -103 -0.249345 -0.543799 0.801317 
43 60 -103 -0.361004 -0.474356 0.802909 
55 49 -103 -0.445501 -0.397047 0.802423 
64 37 -103 -0.520788 -0.293882 0.801507 
70 23 -103 -0.572418 -0.190249 0.797586 
74 7 -103 -0.603167 -0.0668986 0.794805 
74 -8 -103 -0.597887 0.0712807 0.798405 
70 -24 -103 -0.570842 0.191538 0.798406 
64 -38 -103 -0.514792 0.301139 0.802685 
55 -50 -103 -0.440217 0.399631 0.804055 
43 -61 -103 -0.355791 0.482118 0.800609 
30 -69 -103 -0.252969 0.545748 0.798853 
15 -74 -103 -0.111871 0.587432 0.801504 
0 -75 -103 0.00186382 0.598706 0.800967 
-16 -74 -103 0.118139 0.58682 0.801053 
-31 -69 -103 0.249345 0.543799 0.801317 
-44 -61 -103 0.361004 0.474356 0.802909 
-56 -50 -103 0.445501 0.397047 0.802423 
-65 -38 -103 0.520788 0.293882 0.801507 
-71 -24 -103 0.572418 0.190249 0.797586 
-75 -8 -103 0.603167 0.0668986 0.794805 
-75 7 -103 0.597887 -0.0712807 0.798405 
-71 23 -103 0.570842 -0.191538 0.798406 
-65 37 -103 0.514792 -0.301139 0.802685 
-56 49 -103 0.440217 -0.399631 0.804055 
-44 60 -103 0.355791 -0.482118 0.800609 
-31 68 -103 0.252969 -0.545748 0.798853 
-16 73 -103 0.111871 -0.587432 0.801504 
-1 74 -103 -0.00186382 -0.598706 0.800967 
19 92 -85 -0.148731 -0.731151 0.665806 
38 86 -85 -0.308976 -0.680482 0.664438 
55 76 -85 -0.440516 -0.603693 0.664455 
70 63 -85 -0.553726 -0.492987 0.671083 
81 47 -85 -0.64577 -0.362207 0.672151 
89 29 -85 -0.704722 -0.223926 0.673219 
93 9 -85 -0.735784 -0.0763047 0.672904 
93 -10 -85 -0.739555 0.0786234 0.668488 
89 -30 -85 -0.705849 0.230425 0.669837 
81 -48 -85 -0.64673 0.367908 0.66812 
70 -64 -85 -0.550402 0.50053 0.668227 
55 -77 -85 -0.435563 0.602959 0.668375 
38 -87 -85 -0.302826 0.680404 0.667344 
19 -93 -85 -0.15013 0.732642 0.66385 
0 -95 -85 0.00279281 0.746299 0.665605 
-20 -93 -85 0.148731 0.731151 0.665806 
-39 -87 -85 0.308976 0.680482 0.664438 
-56 -77 -85 0.440516 0.603693 0.664455 
-71 -64 -85 0.553726 0.492987 0.671083 
-82 -48 -85 0.64577 0.362207 0.672151 
-90 -30 -85 0.704722 0.223926 0.673219 
-94 -10 -85 0.735784 0.0763047 0.672904 
-94 9 -85 0.739555 -0.0786234 0.668488 
-90 29 -85 0.705849 -0.230425 0.669837 
-82 47 -85 0.64673 -0.367908 0.66812 
-71 63 -85 0.550402 -0.50053 0.668227 
-56 76 -85 0.435563 -0.602959 0.668375 
-39 86 -85 0.302826 -0.680404 0.667344 
-20 92 -85 0.15013 -0.732642 0.66385 
-1 94 -85 -0.00279281 -0.746299 0.665605 
22 107 -64 -0.174286 -0.843287 0.508421 
44 100 -64 -0.358532 -0.784582 0.505852 
64 88 -64 -0.513293 -0.699007 0.497915 
81 73 -64 -0.63995 -0.587085 0.495777 
95 54 -64 -0.752417 -0.424492 0.503662 
104 33 -64 -0.819538 -0.268451 0.506252 
109 11 -64 -0.852629 -0.0901854 0.514675 
109 -12 -64 -0.851376 0.099629 0.515009 
104 -34 -64 -0.820217 0.265602 0.506656 
95 -55 -64 -0.746334 0.433273 0.505233 
81 -74 -64 -0.642218 0.58316 0.497474 
64 -89 -64 -0.511218 0.69941 0.499481 
44 -101 -64 -0.353935 0.785628 0.507462 
22 -108 -64 -0.16677 0.844554 0.508838 
0 -110 -64 -0.00372936 0.863849 0.503737 
-23 -108 -64 0.174286 0.843287 0.508421 
-45 -101 -64 0.358532 0.784582 0.505852 
-65 -89 -64 0.513293 0.699007 0.497915 
-82 -74 -64 0.63995 0.587085 0.495777 
-96 -55 -64 0.752417 0.424492 0.503662 
-105 -34 -64 0.819538 0.268451 0.506252 
-110 -12 -64 0.852629 0.0901854 0.514675 
-110 11 -64 0.851376 -0.099629 0.515009 
-105 33 -64 0.820217 -0.265602 0.506656 
-96 54 -64 0.746334 -0.433273 0.505233 
-82 73 -64 0.642218 -0.58316 0.497474 
-65 88 -64 0.511218 -0.69941 0.499481 
-45 100 -64 0.353935 -0.785628 0.507462 
-23 107 -64 0.16677 -0.844554 0.508838 
-1 109 -64 0.00372936 -0.863849 0.503737 
25 118 -40 -0.188901 -0.93078 0.312995 
49 110 -40 -0.394932 -0.860473 0.321893 
70 97 -40 -0.569418 -0.7555 0.324012 
89 80 -40 -0.699336 -0.643102 0.312008 
104 60 -40 -0.819044 -0.477262 0.318415 
114 37 -40 -0.902417 -0.292177 0.316662 
120 12 -40 -0.946064 -0.108725 0.30519 
120 -13 -40 -0.943407 0.105326 0.314468 
114 -38 -40 -0.897054 0.302515 0.322146 
104 -61 -40 -0.819483 0.478578 0.315295 
89 -81 -40 -0.702601 0.637624 0.315892 
70 -98 -40 -0.560839 0.76411 0.31874 
49 -111 -40 -0.39812 0.862901 0.311291 
25 -119 -40 -0.191409 0.928931 0.316938 
0 -121 -40 0.00342199 0.947947 0.318409 
-26 -119 -40 0.188901 0.93078 0.312995 
-50 -111 -40 0.394932 0.860473 0.321893 
-71 -98 -40 0.569418 0.7555 0.324012 
-90 -81 -40 0.699336 0.643102 0.312008 
-105 -61 -40 0.819044 0.477262 0.318415 
-115 -38 -40 0.902417 0.292177 0.316662 
-121 -13 -40 0.946064 0.108725 0.30519 
-121 12 -40 0.943407 -0.105326 0.314468 
-115 37 -40 0.897054 -0.302515 0.322146 
-105 60 -40 0.819483 -0.478578 0.315295 
-90 80 -40 0.702601 -0.637624 0.315892 
-71 97 -40 0.560839 -0.76411 0.31874 
-50 110 -40 0.39812 -0.862901 0.311291 
-26 118 -40 0.191409 -0.928931 0.316938 
-1 120 -40 -0.00342199 -0.947947 0.318409 
26 123 -14 -0.202514 -0.973944 0.102085 
51 115 -14 -0.400606 -0.910762 0.100136 
74 102 -14 -0.59597 -0.794827 0.114322 
93 84 -14 -0.736525 -0.667186 0.111327 
109 63 -14 -0.85324 -0.51001 0.108957 
120 39 -14 -0.947047 -0.299357 0.116131 
125 13 -14 -0.989432 -0.101329 0.103711 
125 -14 -14 -0.990878 0.0946889 0.0958877 
120 -40 -14 -0.943975 0.31046 0.111917 
109 -64 -14 -0.853377 0.508887 0.113052 
93 -85 -14 -0.740292 0.663594 0.107752 
74 -103 -14 -0.586161 0.801824 0.116158 
51 -116 -14 -0.403728 0.908521 0.107672 
26 -124 -14 -0.211281 0.972451 0.0984826 
0 -127 -14 0.00399001 0.994161 0.107833 
-27 -124 -14 0.202514 0.973944 0.102085 
-52 -116 -14 0.400606 0.910762 0.100136 
-75 -103 -14 0.59597 0.794827 0.114322 
-94 -85 -14 0.736525 0.667186 0.111327 
-110 -64 -14 0.85324 0.51001 0.108957 
-121 -40 -14 0.947047 0.299357 0.116131 
-126 -14 -14 0.989432 0.101329 0.103711 
-126 13 -14 0.990878 -0.0946889 0.0958877 
-121 39 -14 0.943975 -0.31046 0.111917 
-110 63 -14 0.853377 -0.508887 0.113052 
-94 84 -14 0.740292 -0.663594 0.107752 
-75 102 -14 0.586161 -0.801824 0.116158 
-52 115 -14 0.403728 -0.908521 0.107672 
-27 123 -14 0.211281 -0.972451 0.0984826 
-1 126 -14 -0.00399001 -0.994161 0.107833 
26 123 13 -0.209221 -0.972896 -0.0984922 
51 115 13 -0.403728 -0.908521 -0.107672 
74 102 13 -0.586161 -0.801824 -0.116158 
93 84 13 -0.740292 -0.663594 -0.107752 
109 63 13 -0.853377 -0.508887 -0.113052 
120 39 13 -0.943975 -0.31046 -0.111917 
125 13 13 -0.990878 -0.0946889 -0.0958877 
125 -14 13 -0.989432 0.101329 -0.103711 
120 -40 13 -0.947047 0.299357 -0.116131 
109 -64 13 -0.85324 0.510009 -0.108957 
93 -85 13 -0.736525 0.667186 -0.111327 
74 -103 13 -0.59597 0.794827 -0.114322 
51 -116 13 -0.400606 0.910762 -0.100136 
26 -124 13 -0.204373 0.973558 -0.102059 
0 -127 13 -0.00799492 0.994139 -0.107815 
-27 -124 13 0.209221 0.972896 -0.0984922 
-52 -116 13 0.403728 0.908521 -0.107672 
-75 -103 13 0.586161 0.801824 -0.116158 
-94 -85 13 0.740292 0.663594 -0.107752 
-110 -64 13 0.853377 0.508887 -0.113052 
-121 -40 13 0.943975 0.31046 -0.111917 
-126 -14 13 0.990878 0.0946889 -0.0958877 
-126 13 13 0.989432 -0.101329 -0.103711 
-121 39 13 0.947047 -0.299357 -0.116131 
-110 63 13 0.85324 -0.510009 -0.108957 
-94 84 13 0.736525 -0.667186 -0.111327 
-75 102 13 0.59597 -0.794827 -0.114322 
-52 115 13 0.400606 -0.910762 -0.100136 
-27 123 13 0.204373 -0.973558 -0.102059 
-1 126 13 0.00799492 -0.994139 -0.107815 
25 118 39 -0.18978 -0.92926 -0.316955 
49 110 39 -0.39812 -0.862901 -0.311291 
70 97 39 -0.560839 -0.76411 -0.31874 
89 80 39 -0.702601 -0.637624 -0.315892 
104 60 39 -0.819483 -0.478578 -0.315295 
114 37 39 -0.897054 -0.302515 -0.322146 
120 12 39 -0.943407 -0.105326 -0.314468 
120 -13 39 -0.946064 0.108725 -0.30519 
114 -38 39 -0.902417 0.292177 -0.316662 
104 -61 39 -0.819044 0.477262 -0.318415 
89 -81 39 -0.699336 0.643102 -0.312008 
70 -98 39 -0.569418 0.7555 -0.324012 
49 -111 39 -0.394932 0.860473 -0.321893 
25 -119 39 -0.190438 0.930472 -0.312979 
0 -121 39 -0.00664223 0.947938 -0.318385 
-26 -119 39 0.18978 0.92926 -0.316955 
-50 -111 39 0.39812 0.862901 -0.311291 
-71 -98 39 0.560839 0.76411 -0.31874 
-90 -81 39 0.702601 0.637624 -0.315892 
-105 -61 39 0.819483 0.478578 -0.315295 
-115 -38 39 0.897054 0.302515 -0.322146 
-121 -13 39 0.943407 0.105326 -0.314468 
-121 12 39 0.946064 -0.108725 -0.30519 
-115 37 39 0.902417 -0.292177 -0.316662 
-105 60 39 0.819044 -0.477262 -0.318415 
-90 80 39 0.699336 -0.643102 -0.312008 
-71 97 39 0.569418 -0.7555 -0.324012 
-50 110 39 0.394932 -0.860473 -0.321893 
-26 118 39 0.190438 -0.930472 -0.312979 
-1 120 39 0.00664223 -0.947938 -0.318385 
22 107 63 -0.165202 -0.844842 -0.508872 
44 100 63 -0.353935 -0.785629 -0.507462 
64 88 63 -0.511218 -0.69941 -0.499481 
81 73 63 -0.642218 -0.58316 -0.497474 
95 54 63 -0.746334 -0.433273 -0.505233 
104 33 63 -0.820217 -0.265602 -0.506656 
109 11 63 -0.851376 -0.099629 -0.515009 
109 -12 63 -0.852629 0.0901854 -0.514675 
104 -34 63 -0.819538 0.268451 -0.506252 
95 -55 63 -0.752417 0.424492 -0.503662 
81 -74 63 -0.63995 0.587085 -0.495777 
64 -89 63 -0.513293 0.699007 -0.497915 
44 -101 63 -0.358532 0.784582 -0.505852 
22 -108 63 -0.176087 0.842937 -0.508381 
0 -110 63 0.00029617 0.863848 -0.503752 
-23 -108 63 0.165202 0.844842 -0.508872 
-45 -101 63 0.353935 0.785629 -0.507462 
-65 -89 63 0.511218 0.69941 -0.499481 
-82 -74 63 0.642218 0.58316 -0.497474 
-96 -55 63 0.746334 0.433273 -0.505233 
-105 -34 63 0.820217 0.265602 -0.506656 
-110 -12 63 0.851376 0.099629 -0.515009 
-110 11 63 0.852629 -0.0901854 -0.514675 
-105 33 63 0.819538 -0.268451 -0.506252 
-96 54 63 0.752417 -0.424492 -0.503662 
-82 73 63 0.63995 -0.587085 -0.495777 
-65 88 63 0.513293 -0.699007 -0.497915 
-45 100 63 0.358532 -0.784582 -0.505852 
-23 107 63 0.176087 -0.842937 -0.508381 
-1 109 63 -0.00029617 -0.863848 -0.503752 
19 92 84 -0.148318 -0.732951 -0.663916 
38 86 84 -0.302826 -0.680404 -0.667344 
55 76 84 -0.435563 -0.602959 -0.668375 
70 63 84 -0.550402 -0.50053 -0.668227 
81 47 84 -0.64673 -0.367908 -0.66812 
89 29 84 -0.705849 -0.230425 -0.669837 
93 9 84 -0.739555 -0.0786234 -0.668488 
93 -10 84 -0.735784 0.0763047 -0.672904 
89 -30 84 -0.704722 0.223926 -0.673219 
81 -48 84 -0.64577 0.362207 -0.672151 
70 -64 84 -0.553726 0.492987 -0.671083 
55 -77 84 -0.440516 0.603693 -0.664455 
38 -87 84 -0.308976 0.680482 -0.664438 
19 -93 84 -0.150472 0.730852 -0.665743 
0 -95 84 -0.00638785 0.746289 -0.665592 
-20 -93 84 0.148318 0.732951 -0.663916 
-39 -87 84 0.302826 0.680404 -0.667344 
-56 -77 84 0.435563 0.602959 -0.668375 
-71 -64 84 0.550402 0.50053 -0.668227 
-82 -48 84 0.64673 0.367908 -0.66812 
-90 -30 84 0.705849 0.230425 -0.669837 
-94 -10 84 0.739555 0.0786234 -0.668488 
-94 9 84 0.735784 -0.0763047 -0.672904 
-90 29 84 0.704722 -0.223926 -0.673219 
-82 47 84 0.64577 -0.362207 -0.672151 
-71 63 84 0.553726 -0.492987 -0.671083 
-56 76 84 0.440516 -0.603693 -0.664455 
-39 86 84 0.308976 -0.680482 -0.664438 
-20 92 84 0.150472 -0.730852 -0.665743 
-1 94 84 0.00638785 -0.746289 -0.665592 
15 73 102 -0.110468 -0.587655 -0.801535 
30 68 102 -0.252969 -0.545748 -0.798853 
43 60 102 -0.355791 -0.482118 -0.800609 
55 49 102 -0.440217 -0.399631 -0.804055 
64 37 102 -0.514792 -0.301139 -0.802685 
70 23 102 -0.570842 -0.191538 -0.798406 
74 7 102 -0.597887 -0.0712807 -0.798405 
74 -8 102 -0.603167 0.0668986 -0.794805 
70 -24 102 -0.572418 0.190249 -0.797586 
64 -38 102 -0.520788 0.293882 -0.801507 
55 -50 102 -0.445501 0.397047 -0.802423 
43 -61 102 -0.361004 0.474356 -0.802909 
30 -69 102 -0.249345 0.543799 -0.801317 
15 -74 102 -0.11973 0.586536 -0.801025 
0 -75 102 -0.00489533 0.598689 -0.800967 
-16 -74 102 0.110468 0.587655 -0.801535 
-31 -69 102 0.252969 0.545748 -0.798853 
-44 -61 102 0.355791 0.482118 -0.800609 
-56 -50 102 0.440217 0.399631 -0.804055 
-65 -38 102 0.514792 0.301139 -0.802685 
-71 -24 102 0.570842 0.191538 -0.798406 
-75 -8 102 0.597887 0.0712807 -0.798405 
-75 7 102 0.603167 -0.0668986 -0.794805 
-71 23 102 0.572418 -0.190249 -0.797586 
-65 37 102 0.520788 -0.293882 -0.801507 
-56 49 102 0.445501 -0.397047 -0.802423 
-44 60 102 0.361004 -0.474356 -0.802909 
-31 68 102 0.249345 -0.543799 -0.801317 
-16 73 102 0.11973 -0.586536 -0.801025 
-1 74 102 0.00489533 -0.598689 -0.800967 
10 50 116 -0.0638073 -0.40543 -0.911896 
21 47 116 -0.167776 -0.375985 -0.91131 
30 41 116 -0.251174 -0.331671 -0.909344 
38 34 116 -0.308276 -0.277751 -0.909846 
44 25 116 -0.353657 -0.217982 -0.909621 
49 15 116 -0.394854 -0.133191 -0.909038 
51 5 116 -0.413279 -0.0489504 -0.909288 
51 -6 116 -0.412262 0.035603 -0.910369 
49 -16 116 -0.39394 0.138922 -0.908577 
44 -26 116 -0.360909 0.20409 -0.909995 
38 -35 116 -0.313107 0.27049 -0.910384 
30 -42 116 -0.254724 0.329239 -0.90924 
21 -48 116 -0.169918 0.375535 -0.911099 
10 -51 116 -0.087345 0.402014 -0.911458 
0 -52 116 0.00150728 0.413029 -0.910716 
-11 -51 116 0.0638073 0.40543 -0.911896 
-22 -48 116 0.167776 0.375985 -0.91131 
-31 -42 116 0.251174 0.331671 -0.909344 
-39 -35 116 0.308276 0.277751 -0.909846 
-45 -26 116 0.353657 0.217982 -0.909621 
-50 -16 116 0.394854 0.133191 -0.909038 
-52 -6 116 0.413279 0.0489504 -0.909288 
-52 5 116 0.412262 -0.035603 -0.910369 
-50 15 116 0.39394 -0.138922 -0.908577 
-45 25 116 0.360909 -0.20409 -0.909995 
-39 34 116 0.313107 -0.27049 -0.910384 
-31 41 116 0.254724 -0.329239 -0.90924 
-22 47 116 0.169918 -0.375535 -0.911099 
-11 50 116 0.087345 -0.402014 -0.911458 
-1 51 116 -0.00150728 -0.413029 -0.910716 
5 25 124 -0.0359252 -0.22652 -0.973344 
10 24 124 -0.0755392 -0.212727 -0.974187 
15 21 124 -0.137417 -0.183132 -0.973437 
19 17 124 -0.167344 -0.156256 -0.973437 
22 13 124 -0.190657 -0.127865 -0.973293 
25 8 124 -0.211799 -0.0852933 -0.973584 
26 2 124 -0.227659 -0.0258907 -0.973397 
26 -3 124 -0.228196 0.0137794 -0.973518 
25 -9 124 -0.216936 0.0701819 -0.97366 
22 -14 124 -0.196326 0.122494 -0.972857 
19 -18 124 -0.177078 0.143295 -0.973709 
15 -22 124 -0.142502 0.177122 -0.973818 
10 -25 124 -0.0935854 0.205653 -0.97414 
5 -26 124 -0.0486678 0.22219 -0.973788 
0 -27 124 -0.00847055 0.225885 -0.974117 
-6 -26 124 0.0355684 0.224582 -0.973806 
-11 -25 124 0.0747576 0.210777 -0.974671 
-16 -22 124 0.135991 0.18132 -0.973976 
-20 -18 124 0.165554 0.154707 -0.973991 
-23 -14 124 0.188727 0.126565 -0.97384 
-26 -9 124 0.209885 0.0845478 -0.974064 
-27 -3 124 0.225911 0.0257374 -0.973808 
-27 2 124 0.226713 -0.0136684 -0.973866 
-26 8 124 0.216026 -0.0699246 -0.973881 
-23 13 124 0.195945 -0.122245 -0.972965 
-20 17 124 0.176942 -0.143193 -0.973749 
-16 21 124 0.142647 -0.177365 -0.973752 
-11 24 124 0.0938588 -0.206549 -0.973924 
-6 25 124 0.0489274 -0.223491 -0.973477 
-1 26 124 0.00843788 -0.2275 -0.973741 
0 0 127 -0.00104552 -0.00109622 -0.999999 
3 0 1 2 
3 0 2 3 
3 0 3 4 
3 0 4 5 
3 0 5 6 
3 0 6 7 
3 0 7 8 
3 0 8 9 
3 0 9 10 
3 0 10 11 
3 0 11 12 
3 0 12 13 
3 0 13 14 
3 0 14 15 
3 0 15 16 
3 0 16 17 
3 0 17 18 
3 0 18 19 
3 0 19 20 
3 0 20 21 
3 0 21 22 
3 0 22 23 
3 0 23 24 
3 0 24 25 
3 0 25 26 
3 0 26 27 
3 0 27 28 
3 0 28 29 
3 0 29 30 
3 0 30 1 
3 1 32 2 
3 32 1 31 
3 2 33 3 
3 33 2 32 
3 3 34 4 
3 34 3 33 
3 4 35 5 
3 35 4 34 
3 5 36 6 
3 36 5 35 
3 6 37 7 
3 37 6 36 
3 7 38 8 
3 38 7 37 
3 8 39 9 
3 39 8 38 
3 9 40 10 
3 40 9 39 
3 10 41 11 
3 41 10 40 
3 11 42 12 
3 42 11 41 
3 12 43 13 
3 43 12 42 
3 13 44 14 
3 44 13 43 
3 14 45 15 
3 45 14 44 
3 15 46 16 
3 46 15 45 
3 16 47 17 
3 47 16 46 
3 17 48 18 
3 48 17 47 
3 18 49 19 
3 49 18 48 
3 19 50 20 
3 50 19 49 
3 20 51 21 
3 51 20 50 
3 21 52 22 
3 52 21 51 
3 22 53 23 
3 53 22 52 
3 23 54 24 
3 54 23 53 
3 24 55 25 
3 55 24 54 
3 25 56 26 
3 56 25 55 
3 26 57 27 
3 57 26 56 
3 27 58 28 
3 58 27 57 
3 28 59 29 
3 59 28 58 
3 29 60 30 
3 60 29 59 
3 30 31 1 
3 31 30 60 
3 31 62 32 
3 62 31 61 
3 32 63 33 
3 63 32 62 
3 33 64 34 
3 64 33 63 
3 34 65 35 
3 65 34 64 
3 35 66 36 
3 66 35 65 
3 36 67 37 
3 67 36 66 
3 37 68 38 
3 68 37 67 
3 38 69 39 
3 69 38 68 
3 39 70 40 
3 70 39 69 
3 40 71 41 
3 71 40 70 
3 41 72 42 
3 72 41 71 
3 42 73 43 
3 73 42 72 
3 43 74 44 
3 74 43 73 
3 44 75 45 
3 75 44 74 
3 45 76 46 
3 76 45 75 
3 46 77 47 
3 77 46 76 
3 47 78 48 
3 78 47 77 
3 48 79 49 
3 79 48 78 
3 49 80 50 
3 80 49 79 
3 50 81 51 
3 81 50 80 
3 51 82 52 
3 82 51 81 
3 52 83 53 
3 83 52 82 
3 53 84 54 
3 84 53 83 
3 54 85 55 
3 85 54 84 
3 55 86 56 
3 86 55 85 
3 56 87 57 
3 87 56 86 
3 57 88 58 
3 88 57 87 
3 58 89 59 
3 89 58 88 
3 59 90 60 
3 90 59 89 
3 60 61 31 
3 61 60 90 
3 61 92 62 
3 92 61 91 
3 62 93 63 
3 93 62 92 
3 63 94 64 
3 94 63 93 
3 64 95 65 
3 95 64 94 
3 65 96 66 
3 96 65 95 
3 66 97 67 
3 97 66 96 
3 67 98 68 
3 98 67 97 
3 68 99 69 
3 99 68 98 
3 69 100 70 
3 100 69 99 
3 70 101 71 
3 101 70 100 
3 71 102 72 
3 102 71 101 
3 72 103 73 
3 103 72 102 
3 73 104 74 
3 104 73 103 
3 74 105 75 
3 105 74 104 
3 75 106 76 
3 106 75 105 
3 76 107 77 
3 107 76 106 
3 77 108 78 
3 108 77 107 
3 78 109 79 
3 109 78 108 
3 79 110 80 
3 110 79 109 
3 80 111 81 
3 111 80 110 
3 81 112 82 
3 112 81 111 
3 82 113 83 
3 113 82 112 
3 83 114 84 
3 114 83 113 
3 84 115 85 
3 115 84 114 
3 85 116 86 
3 116 85 115 
3 86 117 87 
3 117 86 116 
3 87 118 88 
3 118 87 117 
3 88 119 89 
3 119 88 118 
3 89 120 90 
3 120 89 119 
3 90 91 61 
3 91 90 120 
3 91 122 92 
3 122 91 121 
3 92 123 93 
3 123 92 122 
3 93 124 94 
3 124 93 123 
3 94 125 95 
3 125 94 124 
3 95 126 96 
3 126 95 125 
3 96 127 97 
3 127 96 126 
3 97 128 98 
3 128 97 127 
3 98 129 99 
3 129 98 128 
3 99 130 100 
3 130 99 129 
3 100 131 101 
3 131 100 130 
3 101 132 102 
3 132 101 131 
3 102 133 103 
3 133 102 132 
3 103 134 104 
3 134 103 133 
3 104 135 105 
3 135 104 134 
3 105 136 106 
3 136 105 135 
3 106 137 107 
3 137 106 136 
3 107 138 108 
3 138 107 137 
3 108 139 109 
3 139 108 138 
3 109 140 110 
3 140 109 139 
3 110 141 111 
3 141 110 140 
3 111 142 112 
3 142 111 141 
3 112 143 113 
3 143 112 142 
3 113 144 114 
3 144 113 143 
3 114 145 115 
3 145 114 144 
3 115 146 116 
3 146 115 145 
3 116 147 117 
3 147 116 146 
3 117 148 118 
3 148 117 147 
3 118 149 119 
3 149 118 148 
3 119 150 120 
3 150 119 149 
3 120 121 91 
3 121 120 150 
3 121 152 122 
3 152 121 151 
3 122 153 123 
3 153 122 152 
3 123 154 124 
3 154 123 153 
3 124 155 125 
3 155 124 154 
3 125 156 126 
3 156 125 155 
3 126 157 127 
3 157 126 156 
3 127 158 128 
3 158 127 157 
3 128 159 129 
3 159 128 158 
3 129 160 130 
3 160 129 159 
3 130 161 131 
3 161 130 160 
3 131 162 132 
3 162 131 161 
3 132 163 133 
3 163 132 162 
3 133 164 134 
3 164 133 163 
3 134 165 135 
3 165 134 164 
3 135 166 136 
3 166 135 165 
3 136 167 137 
3 167 136 166 
3 137 168 138 
3 168 137 167 
3 138 169 139 
3 169 138 168 
3 139 170 140 
3 170 139 169 
3 140 171 141 
3 171 140 170 
3 141 172 142 
3 172 141 171 
3 142 173 143 
3 173 142 172 
3 143 174 144 
3 174 143 173 
3 144 175 145 
3 175 144 174 
3 145 176 146 
3 176 145 175 
3 146 177 147 
3 177 146 176 
3 147 178 148 
3 178 147 177 
3 148 179 149 
3 179 148 178 
3 149 180 150 
3 180 149 179 
3 150 151 121 
3 151 150 180 
3 151 182 152 
3 182 151 181 
3 152 183 153 
3 183 152 182 
3 153 184 154 
3 184 153 183 
3 154 185 155 
3 185 154 184 
3 155 186 156 
3 186 155 185 
3 156 187 157 
3 187 156 186 
3 157 188 158 
3 188 157 187 
3 158 189 159 
3 189 158 188 
3 159 190 160 
3 190 159 189 
3 160 191 161 
3 191 160 190 
3 161 192 162 
3 192 161 191 
3 162 193 163 
3 193 162 192 
3 163 194 164 
3 194 163 193 
3 164 195 165 
3 195 164 194 
3 165 196 166 
3 196 165 195 
3 166 197 167 
3 197 166 196 
3 167 198 168 
3 198 167 197 
3 168 199 169 
3 199 168 198 
3 169 200 170 
3 200 169 199 
3 170 201 171 
3 201 170 200 
3 171 202 172 
3 202 171 201 
3 172 203 173 
3 203 172 202 
3 173 204 174 
3 204 173 203 
3 174 205 175 
3 205 174 204 
3 175 206 176 
3 206 175 205 
3 176 207 177 
3 207 176 206 
3 177 208 178 
3 208 177 207 
3 178 209 179 
3 209 178 208 
3 179 210 180 
3 210 179 209 
3 180 181 151 
3 181 180 210 
3 181 212 182 
3 212 181 211 
3 182 213 183 
3 213 182 212 
3 183 214 184 
3 214 183 213 
3 184 215 185 
3 215 184 214 
3 185 216 186 
3 216 185 215 
3 186 217 187 
3 217 186 216 
3 187 218 188 
3 218 187 217 
3 188 219 189 
3 219 188 218 
3 189 220 190 
3 220 189 219 
3 190 221 191 
3 221 190 220 
3 191 222 192 
3 222 191 221 
3 192 223 193 
3 223 192 222 
3 193 224 194 
3 224 193 223 
3 194 225 195 
3 225 194 224 
3 195 226 196 
3 226 195 225 
3 196 227 197 
3 227 196 226 
3 197 228 198 
3 228 197 227 
3 198 229 199 
3 229 198 228 
3 199 230 200 
3 230 199 229 
3 200 231 201 
3 231 200 230 
3 201 232 202 
3 232 201 231 
3 202 233 203 
3 233 202 232 
3 203 234 204 
3 234 203 233 
3 204 235 205 
3 235 204 234 
3 205 236 206 
3 236 205 235 
3 206 237 207 
3 237 206 236 
3 207 238 208 
3 238 207 237 
3 208 239 209 
3 239 208 238 
3 209 240 210 
3 240 209 239 
3 210 211 181 
3 211 210 240 
3 211 242 212 
3 242 211 241 
3 212 243 213 
3 243 212 242 
3 213 244 214 
3 244 213 243 
3 214 245 215 
3 245 214 244 
3 215 246 216 
3 246 215 245 
3 216 247 217 
3 247 216 246 
3 217 248 218 
3 248 217 247 
3 218 249 219 
3 249 218 248 
3 219 250 220 
3 250 219 249 
3 220 251 221 
3 251 220 250 
3 221 252 222 
3 252 221 251 
3 222 253 223 
3 253 222 252 
3 223 254 224 
3 254 223 253 
3 224 255 225 
3 255 224 254 
3 225 256 226 
3 256 225 255 
3 226 257 227 
3 257 226 256 
3 227 258 228 
3 258 227 257 
3 228 259 229 
3 259 228 258 
3 229 260 230 
3 260 229 259 
3 230 261 231 
3 261 230 260 
3 231 262 232 
3 262 231 261 
3 232 263 233 
3 263 232 262 
3 233 264 234 
3 264 233 263 
3 234 265 235 
3 265 234 264 
3 235 266 236 
3 266 235 265 
3 236 267 237 
3 267 236 266 
3 237 268 238 
3 268 237 267 
3 238 269 239 
3 269 238 268 
3 239 270 240 
3 270 239 269 
3 240 241 211 
3 241 240 270 
3 241 272 242 
3 272 241 271 
3 242 273 243 
3 273 242 272 
3 243 274 244 
3 274 243 273 
3 244 275 245 
3 275 244 274 
3 245 276 246 
3 276 245 275 
3 246 277 247 
3 277 246 276 
3 247 278 248 
3 278 247 277 
3 248 279 249 
3 279 248 278 
3 249 280 250 
3 280 249 279 
3 250 281 251 
3 281 250 280 
3 251 282 252 
3 282 251 281 
3 252 283 253 
3 283 252 282 
3 253 284 254 
3 284 253 283 
3 254 285 255 
3 285 254 284 
3 255 286 256 
3 286 255 285 
3 256 287 257 
3 287 256 286 
3 257 288 258 
3 288 257 287 
3 258 289 259 
3 289 258 288 
3 259 290 260 
3 290 259 289 
3 260 291 261 
3 291 260 290 
3 261 292 262 
3 292 261 291 
3 262 293 263 
3 293 262 292 
3 263 294 264 
3 294 263 293 
3 264 295 265 
3 295 264 294 
3 265 296 266 
3 296 265 295 
3 266 297 267 
3 297 266 296 
3 267 298 268 
3 298 267 297 
3 268 299 269 
3 299 268 298 
3 269 300 270 
3 300 269 299 
3 270 271 241 
3 271 270 300 
3 271 302 272 
3 302 271 301 
3 272 303 273 
3 303 272 302 
3 273 304 274 
3 304 273 303 
3 274 305 275 
3 305 274 304 
3 275 306 276 
3 306 275 305 
3 276 307 277 
3 307 276 306 
3 277 308 278 
3 308 277 307 
3 278 309 279 
3 309 278 308 
3 279 310 280 
3 310 279 309 
3 280 311 281 
3 311 280 310 
3 281 312 282 
3 312 281 311 
3 282 313 283 
3 313 282 312 
3 283 314 284 
3 314 283 313 
3 284 315 285 
3 315 284 314 
3 285 316 286 
3 316 285 315 
3 286 317 287 
3 317 286 316 
3 287 318 288 
3 318 287 317 
3 288 319 289 
3 319 288 318 
3 289 320 290 
3 320 289 319 
3 290 321 291 
3 321 290 320 
3 291 322 292 
3 322 291 321 
3 292 323 293 
3 323 292 322 
3 293 324 294 
3 324 293 323 
3 294 325 295 
3 325 294 324 
3 295 326 296 
3 326 295 325 
3 296 327 297 
3 327 296 326 
3 297 328 298 
3 328 297 327 
3 298 329 299 
3 329 298 328 
3 299 330 300 
3 330 299 329 
3 300 301 271 
3 301 300 330 
3 301 332 302 
3 332 301 331 
3 302 333 303 
3 333 302 332 
3 303 334 304 
3 334 303 333 
3 304 335 305 
3 335 304 334 
3 305 336 306 
3 336 305 335 
3 306 337 307 
3 337 306 336 
3 307 338 308 
3 338 307 337 
3 308 339 309 
3 339 308 338 
3 309 340 310 
3 340 309 339 
3 310 341 311 
3 341 310 340 
3 311 342 312 
3 342 311 341 
3 312 343 313 
3 343 312 342 
3 313 344 314 
3 344 313 343 
3 314 345 315 
3 345 314 344 
3 315 346 316 
3 346 315 345 
3 316 347 317 
3 347 316 346 
3 317 348 318 
3 348 317 347 
3 318 349 319 
3 349 318 348 
3 319 350 320 
3 350 319 349 
3 320 351 321 
3 351 320 350 
3 321 352 322 
3 352 321 351 
3 322 353 323 
3 353 322 352 
3 323 354 324 
3 354 323 353 
3 324 355 325 
3 355 324 354 
3 325 356 326 
3 356 325 355 
3 326 357 327 
3 357 326 356 
3 327 358 328 
3 358 327 357 
3 328 359 329 
3 359 328 358 
3 329 360 330 
3 360 329 359 
3 330 331 301 
3 331 330 360 
3 331 362 332 
3 362 331 361 
3 332 363 333 
3 363 332 362 
3 333 364 334 
3 364 333 363 
3 334 365 335 
3 365 334 364 
3 335 366 336 
3 366 335 365 
3 336 367 337 
3 367 336 366 
3 337 368 338 
3 368 337 367 
3 338 369 339 
3 369 338 368 
3 339 370 340 
3 370 339 369 
3 340 371 341 
3 371 340 370 
3 341 372 342 
3 372 341 371 
3 342 373 343 
3 373 342 372 
3 343 374 344 
3 374 343 373 
3 344 375 345 
3 375 344 374 
3 345 376 346 
3 376 345 375 
3 346 377 347 
3 377 346 376 
3 347 378 348 
3 378 347 377 
3 348 379 349 
3 379 348 378 
3 349 380 350 
3 380 349 379 
3 350 381 351 
3 381 350 380 
3 351 382 352 
3 382 351 381 
3 352 383 353 
3 383 352 382 
3 353 384 354 
3 384 353 383 
3 354 385 355 
3 385 354 384 
3 355 386 356 
3 386 355 385 
3 356 387 357 
3 387 356 386 
3 357 388 358 
3 388 357 387 
3 358 389 359 
3 389 358 388 
3 359 390 360 
3 390 359 389 
3 360 361 331 
3 361 360 390 
3 361 392 362 
3 392 361 391 
3 362 393 363 
3 393 362 392 
3 363 394 364 
3 394 363 393 
3 364 395 365 
3 395 364 394 
3 365 396 366 
3 396 365 395 
3 366 397 367 
3 397 366 396 
3 367 398 368 
3 398 367 397 
3 368 399 369 
3 399 368 398 
3 369 400 370 
3 400 369 399 
3 370 401 371 
3 401 370 400 
3 371 402 372 
3 402 371 401 
3 372 403 373 
3 403 372 402 
3 373 404 374 
3 404 373 403 
3 374 405 375 
3 405 374 404 
3 375 406 376 
3 406 375 405 
3 376 407 377 
3 407 376 406 
3 377 408 378 
3 408 377 407 
3 378 409 379 
3 409 378 408 
3 379 410 380 
3 410 379 409 
3 380 411 381 
3 411 380 410 
3 381 412 382 
3 412 381 411 
3 382 413 383 
3 413 382 412 
3 383 414 384 
3 414 383 413 
3 384 415 385 
3 415 384 414 
3 385 416 386 
3 416 385 415 
3 386 417 387 
3 417 386 416 
3 387 418 388 
3 418 387 417 
3 388 419 389 
3 419 388 418 
3 389 420 390 
3 420 389 419 
3 390 391 361 
3 391 390 420 
3 391 421 392 
3 392 421 393 
3 393 421 394 
3 394 421 395 
3 395 421 396 
3 396 421 397 
3 397 421 398 
3 398 421 399 
3 399 421 400 
3 400 421 401 
3 401 421 402 
3 402 421 403 
3 403 421 404 
3 404 421 405 
3 405 421 406 
3 406 421 407 
3 407 421 408 
3 408 421 409 
3 409 421 410 
3 410 421 411 
3 411 421 412 
3 412 421 413 
3 413 421 414 
3 414 421 415 
3 415 421 416 
3 416 421 417 
3 417 421 418 
3 418 421 419 
3 419 421 420 
3 420 421 391 
